<?xml version="1.0" encoding="UTF-8" standalone="no"?>
<!-- Created with Inkscape (http://www.inkscape.org/) -->

<svg
   width="800mm"
   height="256mm"
   viewBox="0 0 800 256"
   version="1.1"
   id="svg5"
   inkscape:version="1.3.1 (9b9bdc1480, 2023-11-25, custom)"
   sodipodi:docname="logo_w_text.svg"
   xml:space="preserve"
   xmlns:inkscape="http://www.inkscape.org/namespaces/inkscape"
   xmlns:sodipodi="http://sodipodi.sourceforge.net/DTD/sodipodi-0.dtd"
   xmlns="http://www.w3.org/2000/svg"
   xmlns:svg="http://www.w3.org/2000/svg"><sodipodi:namedview
     id="namedview7"
     pagecolor="#ffffff"
     bordercolor="#000000"
     borderopacity="0.25"
     inkscape:showpageshadow="2"
     inkscape:pageopacity="0.0"
     inkscape:pagecheckerboard="0"
     inkscape:deskcolor="#d1d1d1"
     inkscape:document-units="mm"
     showgrid="false"
     inkscape:zoom="0.29458379"
     inkscape:cx="1332.3883"
     inkscape:cy="553.32304"
     inkscape:window-width="1920"
     inkscape:window-height="1016"
     inkscape:window-x="0"
     inkscape:window-y="27"
     inkscape:window-maximized="1"
     inkscape:current-layer="layer1" /><defs
     id="defs2"><filter
       inkscape:collect="always"
       style="color-interpolation-filters:sRGB"
       id="filter7111"
       x="-0.066250567"
       y="-0.066250567"
       width="1.1325011"
       height="1.1325011"><feGaussianBlur
         inkscape:collect="always"
         stdDeviation="1.3692157"
         id="feGaussianBlur7113" /></filter></defs><g
     inkscape:label="Layer 1"
     inkscape:groupmode="layer"
     id="layer1"><rect
       style="fill:#ffffff;stroke-width:1.148;stroke-linecap:round;stroke-linejoin:round;fill-opacity:1"
       id="rect1"
       width="800"
       height="256"
       x="0"
       y="0" /><rect
       style="opacity:0.384515;fill:#000000;fill-opacity:1;stroke-width:0.768919;filter:url(#filter7111)"
       id="rect393"
       width="49.601353"
       height="49.601353"
       x="10.124321"
       y="10.124321"
       ry="13.897514"
       transform="matrix(4.5319215,0,0,4.5319215,-30.277345,-30.9902)" /><rect
       style="opacity:0.993849;fill:#00004a;fill-opacity:1;stroke-width:3.48468"
       id="rect395"
       width="224.78944"
       height="224.78944"
       x="10.809159"
       y="10.096025"
       ry="62.982445" /><path
       style="opacity:1;fill:#000080;fill-opacity:1;stroke:none;stroke-width:9.89144;stroke-linecap:round;stroke-linejoin:round;stroke-dasharray:none;stroke-opacity:1"
       d="m 114.821,22.841651 c -7.82675,2.410713 -10.83695,7.047084 -16.628072,18.086823 -5.726386,10.916308 -14.566689,20.801994 -25.452993,26.585233 -4.961398,2.635689 -8.856176,4.572213 -14.399724,3.660368 -14.226555,-2.340116 -16.511381,-1.499278 -30.76377,0.67791 -4.846105,0.740284 -9.115337,5.114696 -11.171731,9.564861 -3.759081,8.134845 -3.200253,18.48315 -0.0807,26.884004 4.877798,13.13582 11.266288,19.7585 14.540423,33.38284 1.827563,7.60485 3.887716,13.34548 4.183572,21.16125 0.323614,8.54879 0.8808,19.67406 8.026907,24.37717 8.629007,5.67914 10.84722,7.21428 21.062471,5.67786 5.014143,-0.75416 10.250108,-5.24479 14.877363,-3.17141 8.862865,3.97129 13.130276,11.06307 20.04364,17.88418 6.694084,6.60477 27.863094,21.40348 36.762334,18.36414 16.38233,-5.59502 20.44607,-29.87239 29.89532,-44.37745 2.15963,-3.31515 4.5754,-6.8441 8.06492,-8.70896 18.83404,-10.06529 23.49395,-10.20889 42.91897,-19.08016 5.35009,-2.44337 10.3023,-6.42161 13.50712,-11.35341 2.56586,-3.94853 5.8036,-9.2611 3.91341,-13.57403 C 229.70253,118.80224 221.8041,109.41584 211.82907,104.76436 196.38286,97.561597 188.34914,89.42243 176.82743,76.863969 164.16005,63.056783 164.43284,41.621329 150.26337,31.133408 140.51108,23.914984 126.41655,19.27011 114.821,22.841651 Z"
       id="path13"
       sodipodi:nodetypes="sssssssssssssssssssssss" /><path
       style="opacity:0.56174;fill:#000000;fill-opacity:1;stroke:none;stroke-width:1.148;stroke-linecap:round;stroke-linejoin:round;stroke-dasharray:none;stroke-opacity:1"
       d="m 122.49077,39.6569 c -12.46689,2.602433 -17.17026,23.09882 -21.58913,31.522591 -4.369471,8.329588 -3.862253,13.535824 -11.474208,19.06145 -5.173734,3.755686 -11.138567,1.983436 -18.166992,0.382897 -10.7267,-2.442724 -9.681725,-6.064613 -20.556878,-4.403329 -3.697777,0.564866 -6.955375,3.902721 -8.524487,7.298379 -2.868333,6.207218 -2.441924,14.103412 -0.06157,20.513612 3.721959,10.02316 11.832383,14.22904 14.330682,24.62496 1.394505,5.80282 -0.618613,11.41676 -0.392862,17.38052 0.24693,6.52307 1.594549,14.48513 7.04732,18.0738 6.584284,4.33341 15.72296,2.71582 23.517614,1.54347 3.825995,-0.57545 4.26851,-0.54097 7.799293,1.04111 6.762738,3.03026 7.634408,8.19679 12.909608,13.40158 5.10785,5.03971 15.51107,21.00735 22.30156,18.68821 12.50038,-4.26924 19.70706,-28.3287 26.91723,-39.39665 1.64789,-2.5296 3.49122,-5.22233 6.15385,-6.64529 14.37115,-7.68023 22.33395,-7.217 37.15604,-13.98614 4.08232,-1.86439 7.86106,-4.89995 10.30648,-8.66311 1.95785,-3.01289 4.42839,-7.0666 2.98609,-10.35754 -3.37107,-7.69194 -15.25536,-15.224 -22.8667,-18.77327 C 178.4976,105.46816 174.83825,95.217076 166.04671,85.634465 156.38099,75.099019 153.44109,62.199293 144.01333,53.11172 137.92182,47.240003 130.77296,37.928013 122.49077,39.6569 Z"
       id="path15"
       sodipodi:nodetypes="sssssssssssssssssssssss" /><path
       style="opacity:1;fill:#5d5def;fill-opacity:1;stroke:none;stroke-width:1.148;stroke-linecap:round;stroke-linejoin:round;stroke-dasharray:none;stroke-opacity:1"
       d="m 119.84492,37.011065 c -12.46689,2.602433 -17.17026,23.09882 -21.589119,31.522591 -4.369467,8.329588 -3.862249,13.535824 -11.474204,19.06145 -5.173734,3.755686 -11.138567,1.983436 -18.166992,0.382897 -10.7267,-2.442724 -9.681725,-6.064613 -20.556878,-4.403329 -3.697777,0.564866 -6.955375,3.902721 -8.524487,7.298379 -2.868333,6.207218 -2.441924,14.103397 -0.06157,20.513597 3.721959,10.02316 11.832383,14.22904 14.330682,24.62496 1.394505,5.80282 -0.618613,11.41676 -0.392862,17.38052 0.24693,6.52307 1.594549,14.48513 7.04732,18.0738 6.584284,4.33341 15.72296,2.71582 23.517614,1.54347 3.825995,-0.57545 4.26851,-0.54097 7.799293,1.04111 6.762729,3.03026 7.634401,8.19679 12.909593,13.40158 5.10785,5.03971 15.51107,21.00735 22.30156,18.68821 12.50038,-4.26924 19.70706,-28.3287 26.91723,-39.39665 1.64789,-2.5296 3.49122,-5.22233 6.15385,-6.64529 14.37115,-7.68023 22.33395,-7.217 37.15604,-13.98614 4.08232,-1.86439 7.86106,-4.89995 10.30648,-8.66311 1.95785,-3.01289 4.42839,-7.0666 2.98609,-10.35754 -3.37107,-7.69194 -15.25536,-15.224 -22.8667,-18.77327 -11.78611,-5.49599 -15.44546,-15.747059 -24.237,-25.32967 -9.66572,-10.535446 -12.60562,-23.435172 -22.03338,-32.522745 -6.09151,-5.871717 -13.24037,-15.183707 -21.52256,-13.45482 z"
       id="path8"
       sodipodi:nodetypes="sssssssssssssssssssssss" /><path
       style="opacity:0.51063;fill:#000000;fill-opacity:1;stroke:none;stroke-width:1.725;stroke-linecap:round;stroke-linejoin:round;stroke-dasharray:none;stroke-opacity:1"
       d="m 122.73364,64.224972 c -14.72108,3.294516 -11.43118,27.861664 -20.26703,34.435411 -6.020629,4.479277 -39.949892,-6.790577 -40.846768,12.481527 -0.491315,10.55739 12.511472,14.94487 13.72646,20.28567 1.068086,4.69505 -5.556508,16.69486 1.092565,23.23723 8.638022,8.4994 21.389425,-7.06536 33.800163,-4.25199 7.53569,2.24116 11.14431,23.57998 18.87822,22.16714 8.16045,-1.49076 9.32019,-14.08697 15.88706,-19.15565 8.70198,-6.71669 21.47103,-6.86606 29.88884,-13.93563 3.86546,-3.24635 9.15452,-7.38776 8.67463,-12.41272 -1.41552,-14.82215 -22.88964,-19.37467 -32.05514,-31.108974 -5.44732,-6.974014 -7.17147,-16.602097 -13.32516,-22.961517 -3.8395,-3.967864 -10.06573,-9.986332 -15.45384,-8.780497 z"
       id="path16"
       sodipodi:nodetypes="sssssssssssss" /><path
       style="opacity:1;fill:#b7b7ff;fill-opacity:1;stroke:none;stroke-width:1.725;stroke-linecap:round;stroke-linejoin:round;stroke-dasharray:none;stroke-opacity:1"
       d="m 119.55862,61.04997 c -14.72108,3.294516 -11.43118,27.861664 -20.26702,34.435411 -6.020621,4.479265 -39.949884,-6.790577 -40.84676,12.481509 -0.491315,10.55739 12.511472,14.94487 13.72646,20.28567 1.068086,4.69505 -5.556508,16.69486 1.092565,23.23723 8.638022,8.4994 21.389425,-7.06536 33.800145,-4.25199 7.53569,2.24116 11.14431,23.57998 18.87822,22.16714 8.16045,-1.49076 9.32019,-14.08697 15.88706,-19.15565 8.70198,-6.71669 21.47103,-6.86606 29.88884,-13.93563 3.86546,-3.24635 9.15452,-7.38776 8.67463,-12.41272 -1.41552,-14.82215 -22.88964,-19.37467 -32.05514,-31.108956 -5.44732,-6.974014 -7.17147,-16.602097 -13.32516,-22.961517 -3.8395,-3.967864 -10.06573,-9.986332 -15.45384,-8.780497 z"
       id="path11"
       sodipodi:nodetypes="sssssssssssss" /><text
       xml:space="preserve"
       style="font-size:116.228px;font-family:Ani;-inkscape-font-specification:Ani;opacity:1;fill:#00004a;fill-opacity:0.996078;stroke:none;stroke-width:18.9113;stroke-linecap:round;stroke-linejoin:round;stroke-dasharray:none;stroke-opacity:1"
       x="262.92719"
       y="158.91664"
       id="text16"><tspan
         sodipodi:role="line"
         id="tspan16"
         style="font-style:normal;font-variant:normal;font-weight:normal;font-stretch:normal;font-family:Cantarell;-inkscape-font-specification:Cantarell;fill:#00004a;fill-opacity:0.996078;stroke-width:18.9113"
         x="262.92719"
         y="158.91664">Turftopic</tspan></text></g></svg>
